<svg width="56" height="56" viewBox="0 0 56 56" fill="none" xmlns="http://www.w3.org/2000/svg">
<rect x="4" y="4" width="48" height="48" rx="24" fill="#FAE2D7"/>
<g clip-path="url(#clip0_1263_20774)">
<path d="M36.1176 34.1429H34C33.6471 32.8571 32.5 32 31.0882 32C29.4118 32 28 33.3714 28 35C28 36.6286 29.4118 38 31.0882 38C32.5 38 33.6471 37.1429 34 35.8571H36.1176C36.6471 35.8571 37 35.4286 37 35C37 34.4857 36.6471 34.1429 36.1176 34.1429Z" fill="#FF6523"/>
<path d="M26.1489 34.0002H19.8511C19.3404 34.0002 19 34.5002 19 35.0002C19 35.6002 19.4255 36.0002 19.8511 36.0002H26.1489C26.6596 36.0002 27 35.5002 27 35.0002C27 34.4002 26.5745 34.0002 26.1489 34.0002Z" fill="#FF6523"/>
<path d="M19.8511 22H26.1489C26.6596 22 27 21.5 27 21C27 20.5 26.5745 20 26.1489 20H19.8511C19.3404 20 19 20.5 19 21C19 21.5 19.4255 22 19.8511 22Z" fill="#FF6523"/>
<path d="M31.0882 24.0002C32.5 24.0002 33.6471 23.1431 34 21.8574H36.1176C36.6471 21.8574 37 21.4288 37 21.0002C37 20.5717 36.5588 20.1431 36.1176 20.1431H34C33.6471 18.8574 32.5 18.0002 31.0882 18.0002C29.4118 18.0002 28 19.3717 28 21.0002C28 22.6288 29.4118 24.0002 31.0882 24.0002Z" fill="#FF6523"/>
<path d="M19.8824 28.8571H22C22.3529 30.0571 23.5 31 24.9118 31C26.5882 31 28 29.6286 28 28C28 26.3714 26.5882 25 24.9118 25C23.5 25 22.3529 25.8571 22 27.1429H19.8824C19.3529 27.1429 19 27.5714 19 28C19 28.4286 19.4412 28.8571 19.8824 28.8571Z" fill="#FF6523"/>
<path d="M36.1398 27.0002H29.8602C29.3441 27.0002 29 27.5002 29 28.0002C29 28.5002 29.4301 29.0002 29.8602 29.0002H36.1398C36.6559 29.0002 37 28.5002 37 28.0002C37 27.5002 36.6559 27.0002 36.1398 27.0002Z" fill="#FF6523"/>
</g>
<rect x="4" y="4" width="48" height="48" rx="24" stroke="#FFEFE8" stroke-width="8"/>
<defs>
<clipPath id="clip0_1263_20774">
<rect width="24" height="24" fill="white" transform="translate(16 16)"/>
</clipPath>
</defs>
</svg>
