<svg width="97" height="54" viewBox="0 0 97 54" fill="none" xmlns="http://www.w3.org/2000/svg">
<path d="M8.09643 38.3372C4.92764 35.154 3.34325 31.3514 3.34325 26.9295C3.34325 22.5077 4.92764 18.7123 8.09643 15.5435C11.2652 12.3747 15.0606 10.7903 19.4825 10.7903C23.0833 10.7903 26.3602 11.9066 29.3129 14.1392L26.7419 16.7102C24.4949 14.9962 22.0751 14.1392 19.4825 14.1392C16.1264 14.1392 13.2601 15.3923 10.8835 17.8985C8.50693 20.4047 7.31864 23.4151 7.31864 26.9295C7.31864 30.444 8.50693 33.4544 10.8835 35.9606C13.2601 38.4668 16.1264 39.7199 19.4825 39.7199C22.1327 39.7199 24.5525 38.8773 26.7419 37.1921L29.3129 39.7631C26.3314 41.9813 23.0545 43.0904 19.4825 43.0904C15.0606 43.0904 11.2652 41.506 8.09643 38.3372Z" fill="black"/>
<circle cx="13.95" cy="26.5819" r="3.8213" stroke="#FE7B43" stroke-width="1.07547"/>
<circle cx="27.0272" cy="26.5819" r="3.8213" stroke="#FE7B43" stroke-width="1.07547"/>
<mask id="path-4-outside-1_1238_80080" maskUnits="userSpaceOnUse" x="16.2192" y="22.7485" width="8" height="6" fill="black">
<rect fill="white" x="16.2192" y="22.7485" width="8" height="6"/>
<path d="M23.7578 27.6717C23.7578 26.6312 23.4133 25.6333 22.8002 24.8976C22.1871 24.1619 21.3556 23.7485 20.4885 23.7485C19.6214 23.7485 18.7899 24.1619 18.1768 24.8976C17.5637 25.6333 17.2192 26.6312 17.2192 27.6717H17.803C17.803 26.817 18.0859 25.9973 18.5896 25.3929C19.0932 24.7886 19.7763 24.4491 20.4885 24.4491C21.2008 24.4491 21.8838 24.7886 22.3875 25.3929C22.8911 25.9973 23.174 26.817 23.174 27.6717H23.7578Z"/>
</mask>
<path d="M23.7578 27.6717C23.7578 26.6312 23.4133 25.6333 22.8002 24.8976C22.1871 24.1619 21.3556 23.7485 20.4885 23.7485C19.6214 23.7485 18.7899 24.1619 18.1768 24.8976C17.5637 25.6333 17.2192 26.6312 17.2192 27.6717H17.803C17.803 26.817 18.0859 25.9973 18.5896 25.3929C19.0932 24.7886 19.7763 24.4491 20.4885 24.4491C21.2008 24.4491 21.8838 24.7886 22.3875 25.3929C22.8911 25.9973 23.174 26.817 23.174 27.6717H23.7578Z" fill="#FE7B43"/>
<path d="M23.7578 27.6717C23.7578 26.6312 23.4133 25.6333 22.8002 24.8976C22.1871 24.1619 21.3556 23.7485 20.4885 23.7485C19.6214 23.7485 18.7899 24.1619 18.1768 24.8976C17.5637 25.6333 17.2192 26.6312 17.2192 27.6717H17.803C17.803 26.817 18.0859 25.9973 18.5896 25.3929C19.0932 24.7886 19.7763 24.4491 20.4885 24.4491C21.2008 24.4491 21.8838 24.7886 22.3875 25.3929C22.8911 25.9973 23.174 26.817 23.174 27.6717H23.7578Z" stroke="#FE7B43" stroke-width="0.614552" mask="url(#path-4-outside-1_1238_80080)"/>
<path d="M41.6898 22.6524V22.2974H46.2959V22.6524H45.8065C45.2947 22.6524 44.9013 22.8667 44.6262 23.2954C44.4919 23.4937 44.4247 23.9543 44.4247 24.6772V29.955C44.4247 31.2601 44.2935 32.2741 44.0312 32.997C43.7753 33.7135 43.2668 34.3308 42.5055 34.849C41.7506 35.3608 40.7206 35.6167 39.4155 35.6167C37.9953 35.6167 36.9174 35.3704 36.1817 34.8778C35.446 34.3852 34.9246 33.7231 34.6175 32.8914C34.4128 32.3221 34.3104 31.2537 34.3104 29.6863V24.6004C34.3104 23.8008 34.1985 23.2762 33.9746 23.0267C33.7571 22.7772 33.402 22.6524 32.9094 22.6524H32.42V22.2974H38.0433V22.6524H37.5443C37.0069 22.6524 36.6231 22.822 36.3928 23.161C36.2328 23.3913 36.1529 23.8711 36.1529 24.6004V30.2717C36.1529 30.7771 36.1977 31.3561 36.2872 32.0086C36.3832 32.6611 36.5527 33.1697 36.7958 33.5344C37.0389 33.899 37.3876 34.1997 37.8418 34.4364C38.3024 34.6731 38.8654 34.7914 39.5307 34.7914C40.3815 34.7914 41.1428 34.6059 41.8146 34.2349C42.4863 33.8638 42.9437 33.3904 43.1868 32.8147C43.4363 32.2325 43.561 31.2505 43.561 29.8687V24.6004C43.561 23.788 43.4715 23.2794 43.2923 23.0747C43.0428 22.7932 42.6718 22.6524 42.1792 22.6524H41.6898ZM55.3116 30.953H50.2737L49.3908 33.0066C49.1733 33.512 49.0646 33.8894 49.0646 34.1389C49.0646 34.3372 49.1573 34.5132 49.3429 34.6667C49.5348 34.8138 49.9442 34.9098 50.5712 34.9546V35.3096H46.4736V34.9546C47.0174 34.8586 47.3693 34.7339 47.5292 34.5803C47.8555 34.2733 48.2169 33.6495 48.6136 32.7091L53.1909 21.9999H53.5267L58.0561 32.8243C58.4207 33.6943 58.7502 34.2605 59.0445 34.5228C59.3451 34.7786 59.761 34.9226 60.292 34.9546V35.3096H55.1581V34.9546C55.6763 34.929 56.0249 34.8426 56.204 34.6955C56.3896 34.5483 56.4823 34.3692 56.4823 34.1581C56.4823 33.8766 56.3544 33.432 56.0985 32.8243L55.3116 30.953ZM55.0429 30.2429L52.8358 24.9843L50.5712 30.2429H55.0429ZM69.5092 22.2974L69.6531 25.3489H69.2885C69.2181 24.8115 69.1221 24.4277 69.0006 24.1974C68.8023 23.8263 68.5368 23.5545 68.2041 23.3817C67.8778 23.2026 67.446 23.113 66.9086 23.113H65.0758V33.0546C65.0758 33.8542 65.1622 34.3532 65.3349 34.5515C65.578 34.8202 65.9522 34.9546 66.4576 34.9546H66.9086V35.3096H61.3909V34.9546H61.8515C62.4017 34.9546 62.7919 34.7882 63.0222 34.4556C63.163 34.2509 63.2333 33.7839 63.2333 33.0546V23.113H61.6692C61.0614 23.113 60.6296 23.1578 60.3737 23.2474C60.0411 23.3689 59.7564 23.6024 59.5197 23.9479C59.283 24.2934 59.1422 24.7604 59.0974 25.3489H58.7328L58.8863 22.2974H69.5092ZM74.0627 23.0075V28.151H76.9223C77.6644 28.151 78.1602 28.039 78.4097 27.8151C78.7424 27.5208 78.9279 27.0026 78.9663 26.2605H79.3213V30.7899H78.9663C78.8767 30.1565 78.7872 29.7503 78.6976 29.5712C78.5824 29.3473 78.3937 29.1714 78.1314 29.0434C77.8691 28.9155 77.4661 28.8515 76.9223 28.8515H74.0627V33.1409C74.0627 33.7167 74.0883 34.0685 74.1395 34.1965C74.1906 34.318 74.2802 34.4172 74.4082 34.494C74.5361 34.5643 74.7792 34.5995 75.1375 34.5995H77.3445C78.0802 34.5995 78.6144 34.5483 78.9471 34.446C79.2798 34.3436 79.5996 34.1421 79.9067 33.8414C80.3033 33.4448 80.7096 32.8466 81.1254 32.047H81.5092L80.3865 35.3096H70.3586V34.9546H70.8192C71.1263 34.9546 71.4174 34.881 71.6925 34.7339C71.8972 34.6315 72.0347 34.478 72.1051 34.2733C72.1819 34.0685 72.2202 33.6495 72.2202 33.0162V24.562C72.2202 23.7368 72.1371 23.2282 71.9708 23.0363C71.7404 22.7804 71.3566 22.6524 70.8192 22.6524H70.3586V22.2974H80.3865L80.5304 25.1474H80.1562C80.0218 24.4629 79.8715 23.9927 79.7052 23.7368C79.5452 23.4809 79.3053 23.2858 78.9855 23.1514C78.7296 23.0555 78.2786 23.0075 77.6324 23.0075H74.0627ZM89.7956 28.103L92.5881 32.2677C93.3622 33.4192 93.9347 34.1485 94.3058 34.4556C94.6832 34.7563 95.1598 34.9226 95.7356 34.9546V35.3096H90.1507V34.9546C90.5217 34.9482 90.7968 34.9098 90.9759 34.8394C91.1103 34.7818 91.219 34.6955 91.3022 34.5803C91.3918 34.4588 91.4366 34.3372 91.4366 34.2157C91.4366 34.0685 91.4078 33.9214 91.3502 33.7743C91.3054 33.6655 91.1295 33.384 90.8224 32.9298L88.6153 29.5904L85.89 33.0833C85.6021 33.4544 85.4294 33.7039 85.3718 33.8318C85.3143 33.9534 85.2855 34.0813 85.2855 34.2157C85.2855 34.4204 85.3718 34.5899 85.5446 34.7243C85.7173 34.8586 86.0468 34.9354 86.533 34.9546V35.3096H81.9173V34.9546C82.2435 34.9226 82.525 34.8554 82.7617 34.7531C83.1584 34.5867 83.5358 34.3628 83.894 34.0813C84.2523 33.7999 84.6617 33.368 85.1223 32.7859L88.1931 28.9091L85.6309 25.157C84.9336 24.1398 84.3419 23.4745 83.8557 23.161C83.3695 22.8411 82.8097 22.6716 82.1764 22.6524V22.2974H88.1931V22.6524C87.6813 22.6716 87.3294 22.7548 87.1375 22.9019C86.952 23.0491 86.8592 23.2122 86.8592 23.3913C86.8592 23.628 87.0128 23.9735 87.3198 24.4277L89.3158 27.4121L91.6285 24.4853C91.8972 24.1398 92.0603 23.9031 92.1179 23.7752C92.1818 23.6472 92.2138 23.5161 92.2138 23.3817C92.2138 23.2474 92.1754 23.129 92.0987 23.0267C92.0027 22.8923 91.8812 22.7996 91.734 22.7484C91.5869 22.6908 91.283 22.6588 90.8224 22.6524V22.2974H95.4381V22.6524C95.0735 22.6716 94.776 22.7292 94.5457 22.8252C94.2002 22.9723 93.8835 23.1706 93.5957 23.4201C93.3078 23.6696 92.9016 24.1302 92.377 24.8019L89.7956 28.103Z" fill="black"/>
</svg>
