<svg width="216" height="24" viewBox="0 0 216 24" fill="none" xmlns="http://www.w3.org/2000/svg">
<g clip-path="url(#clip0_5125_230394)">
<path d="M10.0001 6.99996V12L13.3334 13.6666M18.3334 12C18.3334 16.6023 14.6025 20.3333 10.0001 20.3333C5.39771 20.3333 1.66675 16.6023 1.66675 12C1.66675 7.39759 5.39771 3.66663 10.0001 3.66663C14.6025 3.66663 18.3334 7.39759 18.3334 12Z" stroke="#98A2B3" stroke-width="1.66667" stroke-linecap="round" stroke-linejoin="round"/>
</g>
<path d="M29.2784 18V6.36364H36.4943V7.875H31.0341V11.4205H35.9773V12.9261H31.0341V18H29.2784ZM40.2159 6.36364V18H38.517V6.36364H40.2159ZM46.2628 18.1761C45.4029 18.1761 44.6624 17.9924 44.0412 17.625C43.4238 17.2538 42.9465 16.733 42.6094 16.0625C42.276 15.3883 42.1094 14.5985 42.1094 13.6932C42.1094 12.7992 42.276 12.0114 42.6094 11.3295C42.9465 10.6477 43.4162 10.1155 44.0185 9.73295C44.6245 9.35038 45.3329 9.15909 46.1435 9.15909C46.6359 9.15909 47.1132 9.24053 47.5753 9.40341C48.0374 9.56629 48.4522 9.82197 48.8196 10.1705C49.187 10.5189 49.4768 10.9716 49.6889 11.5284C49.901 12.0814 50.0071 12.7538 50.0071 13.5455V14.1477H43.0696V12.875H48.3423C48.3423 12.428 48.2514 12.0322 48.0696 11.6875C47.8878 11.339 47.6321 11.0644 47.3026 10.8636C46.9768 10.6629 46.5942 10.5625 46.1548 10.5625C45.6776 10.5625 45.2609 10.6799 44.9048 10.9148C44.5526 11.1458 44.2798 11.4489 44.0866 11.8239C43.8973 12.1951 43.8026 12.5985 43.8026 13.0341V14.0284C43.8026 14.6117 43.9048 15.108 44.1094 15.517C44.3177 15.9261 44.6075 16.2386 44.9787 16.4545C45.3499 16.6667 45.7836 16.7727 46.2798 16.7727C46.6018 16.7727 46.8954 16.7273 47.1605 16.6364C47.4257 16.5417 47.6548 16.4015 47.848 16.2159C48.0412 16.0303 48.1889 15.8011 48.2912 15.5284L49.8991 15.8182C49.7704 16.2917 49.5393 16.7064 49.206 17.0625C48.8764 17.4148 48.4616 17.6894 47.9616 17.8864C47.4654 18.0795 46.8991 18.1761 46.2628 18.1761ZM53.0298 9.27273L54.956 12.6705L56.8991 9.27273H58.7571L56.0355 13.6364L58.7798 18H56.9219L54.956 14.7386L52.9957 18H51.1321L53.848 13.6364L51.1662 9.27273H53.0298ZM60.5014 18V9.27273H62.2003V18H60.5014ZM61.3594 7.92614C61.0639 7.92614 60.8101 7.82765 60.598 7.63068C60.3897 7.42992 60.2855 7.19129 60.2855 6.91477C60.2855 6.63447 60.3897 6.39583 60.598 6.19886C60.8101 5.99811 61.0639 5.89773 61.3594 5.89773C61.6548 5.89773 61.9067 5.99811 62.1151 6.19886C62.3272 6.39583 62.4332 6.63447 62.4332 6.91477C62.4332 7.19129 62.3272 7.42992 62.1151 7.63068C61.9067 7.82765 61.6548 7.92614 61.3594 7.92614ZM64.6222 18V6.36364H66.321V10.6875H66.4233C66.5218 10.5057 66.6638 10.2955 66.8494 10.0568C67.035 9.81818 67.2926 9.60985 67.6222 9.43182C67.9517 9.25 68.3873 9.15909 68.929 9.15909C69.6335 9.15909 70.2623 9.33712 70.8153 9.69318C71.3684 10.0492 71.8021 10.5625 72.1165 11.233C72.4347 11.9034 72.5938 12.7102 72.5938 13.6534C72.5938 14.5966 72.4366 15.4053 72.1222 16.0795C71.8078 16.75 71.3759 17.267 70.8267 17.6307C70.2775 17.9905 69.6506 18.1705 68.946 18.1705C68.4157 18.1705 67.982 18.0814 67.6449 17.9034C67.3116 17.7254 67.0502 17.517 66.8608 17.2784C66.6714 17.0398 66.5256 16.8277 66.4233 16.642H66.2812V18H64.6222ZM66.2869 13.6364C66.2869 14.25 66.3759 14.7879 66.554 15.25C66.732 15.7121 66.9896 16.0739 67.3267 16.3352C67.6638 16.5928 68.0767 16.7216 68.5653 16.7216C69.0729 16.7216 69.4972 16.5871 69.8381 16.3182C70.179 16.0455 70.4366 15.6761 70.6108 15.2102C70.7888 14.7443 70.8778 14.2197 70.8778 13.6364C70.8778 13.0606 70.7907 12.5436 70.6165 12.0852C70.446 11.6269 70.1884 11.2652 69.8438 11C69.5028 10.7348 69.0767 10.6023 68.5653 10.6023C68.0729 10.6023 67.6562 10.7292 67.3153 10.983C66.9782 11.2367 66.7225 11.5909 66.5483 12.0455C66.3741 12.5 66.2869 13.0303 66.2869 13.6364ZM76.2003 6.36364V18H74.5014V6.36364H76.2003ZM82.2472 18.1761C81.3873 18.1761 80.6468 17.9924 80.0256 17.625C79.4081 17.2538 78.9309 16.733 78.5938 16.0625C78.2604 15.3883 78.0938 14.5985 78.0938 13.6932C78.0938 12.7992 78.2604 12.0114 78.5938 11.3295C78.9309 10.6477 79.4006 10.1155 80.0028 9.73295C80.6089 9.35038 81.3172 9.15909 82.1278 9.15909C82.6203 9.15909 83.0975 9.24053 83.5597 9.40341C84.0218 9.56629 84.4366 9.82197 84.804 10.1705C85.1714 10.5189 85.4612 10.9716 85.6733 11.5284C85.8854 12.0814 85.9915 12.7538 85.9915 13.5455V14.1477H79.054V12.875H84.3267C84.3267 12.428 84.2358 12.0322 84.054 11.6875C83.8722 11.339 83.6165 11.0644 83.2869 10.8636C82.9612 10.6629 82.5786 10.5625 82.1392 10.5625C81.6619 10.5625 81.2453 10.6799 80.8892 10.9148C80.5369 11.1458 80.2642 11.4489 80.071 11.8239C79.8816 12.1951 79.7869 12.5985 79.7869 13.0341V14.0284C79.7869 14.6117 79.8892 15.108 80.0938 15.517C80.3021 15.9261 80.5919 16.2386 80.9631 16.4545C81.3343 16.6667 81.768 16.7727 82.2642 16.7727C82.5862 16.7727 82.8797 16.7273 83.1449 16.6364C83.41 16.5417 83.6392 16.4015 83.8324 16.2159C84.0256 16.0303 84.1733 15.8011 84.2756 15.5284L85.8835 15.8182C85.7547 16.2917 85.5237 16.7064 85.1903 17.0625C84.8608 17.4148 84.446 17.6894 83.946 17.8864C83.4498 18.0795 82.8835 18.1761 82.2472 18.1761ZM93.8097 12.8182V18H92.1108V6.36364H93.7869V10.6932H93.8949C94.0994 10.2235 94.4119 9.85038 94.8324 9.57386C95.2528 9.29735 95.8021 9.15909 96.4801 9.15909C97.0786 9.15909 97.6013 9.2822 98.0483 9.52841C98.4991 9.77462 98.8475 10.142 99.0938 10.6307C99.3438 11.1155 99.4688 11.7216 99.4688 12.4489V18H97.7699V12.6534C97.7699 12.0133 97.6051 11.517 97.2756 11.1648C96.946 10.8087 96.4877 10.6307 95.9006 10.6307C95.4991 10.6307 95.1392 10.7159 94.821 10.8864C94.5066 11.0568 94.2585 11.3068 94.0767 11.6364C93.8987 11.9621 93.8097 12.3561 93.8097 12.8182ZM105.412 18.1761C104.594 18.1761 103.88 17.9886 103.27 17.6136C102.66 17.2386 102.187 16.714 101.849 16.0398C101.512 15.3655 101.344 14.5777 101.344 13.6761C101.344 12.7708 101.512 11.9792 101.849 11.3011C102.187 10.6231 102.66 10.0966 103.27 9.72159C103.88 9.34659 104.594 9.15909 105.412 9.15909C106.23 9.15909 106.944 9.34659 107.554 9.72159C108.164 10.0966 108.637 10.6231 108.974 11.3011C109.312 11.9792 109.48 12.7708 109.48 13.6761C109.48 14.5777 109.312 15.3655 108.974 16.0398C108.637 16.714 108.164 17.2386 107.554 17.6136C106.944 17.9886 106.23 18.1761 105.412 18.1761ZM105.418 16.75C105.948 16.75 106.387 16.6098 106.736 16.3295C107.084 16.0492 107.342 15.6761 107.509 15.2102C107.679 14.7443 107.764 14.2311 107.764 13.6705C107.764 13.1136 107.679 12.6023 107.509 12.1364C107.342 11.6667 107.084 11.2898 106.736 11.0057C106.387 10.7216 105.948 10.5795 105.418 10.5795C104.884 10.5795 104.44 10.7216 104.088 11.0057C103.74 11.2898 103.48 11.6667 103.31 12.1364C103.143 12.6023 103.06 13.1136 103.06 13.6705C103.06 14.2311 103.143 14.7443 103.31 15.2102C103.48 15.6761 103.74 16.0492 104.088 16.3295C104.44 16.6098 104.884 16.75 105.418 16.75ZM116.905 14.3807V9.27273H118.609V18H116.939V16.4886H116.848C116.647 16.9545 116.325 17.3428 115.882 17.6534C115.443 17.9602 114.895 18.1136 114.24 18.1136C113.679 18.1136 113.183 17.9905 112.751 17.7443C112.323 17.4943 111.986 17.125 111.74 16.6364C111.498 16.1477 111.376 15.5436 111.376 14.8239V9.27273H113.075V14.6193C113.075 15.214 113.24 15.6875 113.57 16.0398C113.899 16.392 114.327 16.5682 114.854 16.5682C115.172 16.5682 115.488 16.4886 115.803 16.3295C116.121 16.1705 116.384 15.9299 116.592 15.608C116.804 15.286 116.909 14.8769 116.905 14.3807ZM120.892 18V9.27273H122.534V10.6591H122.625C122.784 10.1894 123.064 9.82008 123.466 9.55114C123.871 9.27841 124.33 9.14205 124.841 9.14205C124.947 9.14205 125.072 9.14583 125.216 9.15341C125.364 9.16098 125.479 9.17045 125.562 9.18182V10.8068C125.494 10.7879 125.373 10.767 125.199 10.7443C125.025 10.7178 124.85 10.7045 124.676 10.7045C124.275 10.7045 123.917 10.7898 123.602 10.9602C123.292 11.1269 123.045 11.3598 122.864 11.6591C122.682 11.9545 122.591 12.2917 122.591 12.6705V18H120.892ZM133.572 11.4034L132.033 11.6761C131.968 11.4792 131.866 11.2917 131.726 11.1136C131.589 10.9356 131.404 10.7898 131.169 10.6761C130.934 10.5625 130.641 10.5057 130.288 10.5057C129.807 10.5057 129.406 10.6136 129.084 10.8295C128.762 11.0417 128.601 11.3163 128.601 11.6534C128.601 11.9451 128.709 12.1799 128.925 12.358C129.141 12.536 129.489 12.6818 129.97 12.7955L131.357 13.1136C132.16 13.2992 132.758 13.5852 133.152 13.9716C133.546 14.358 133.743 14.8598 133.743 15.4773C133.743 16 133.591 16.4659 133.288 16.875C132.989 17.2803 132.571 17.5985 132.033 17.8295C131.499 18.0606 130.879 18.1761 130.175 18.1761C129.197 18.1761 128.4 17.9678 127.783 17.5511C127.165 17.1307 126.786 16.5341 126.646 15.7614L128.288 15.5114C128.391 15.9394 128.601 16.2633 128.919 16.483C129.237 16.6989 129.652 16.8068 130.163 16.8068C130.72 16.8068 131.165 16.6913 131.499 16.4602C131.832 16.2254 131.999 15.9394 131.999 15.6023C131.999 15.3295 131.896 15.1004 131.692 14.9148C131.491 14.7292 131.182 14.589 130.766 14.4943L129.288 14.1705C128.474 13.9848 127.872 13.6894 127.482 13.2841C127.095 12.8788 126.902 12.3655 126.902 11.7443C126.902 11.2292 127.046 10.7784 127.334 10.392C127.622 10.0057 128.019 9.70455 128.527 9.48864C129.035 9.26894 129.616 9.15909 130.271 9.15909C131.214 9.15909 131.957 9.36364 132.499 9.77273C133.04 10.178 133.398 10.7216 133.572 11.4034ZM137.821 16.4091L137.736 17.0284C137.679 17.483 137.582 17.9564 137.446 18.4489C137.313 18.9451 137.175 19.4053 137.031 19.8295C136.891 20.2538 136.776 20.5909 136.685 20.8409H135.48C135.529 20.6061 135.598 20.2879 135.685 19.8864C135.772 19.4886 135.857 19.0436 135.94 18.5511C136.024 18.0587 136.086 17.5568 136.128 17.0455L136.185 16.4091H137.821ZM144.403 18V6.36364H148.551C149.456 6.36364 150.206 6.52841 150.801 6.85795C151.396 7.1875 151.841 7.63826 152.136 8.21023C152.432 8.77841 152.58 9.41856 152.58 10.1307C152.58 10.8466 152.43 11.4905 152.131 12.0625C151.835 12.6307 151.388 13.0814 150.79 13.4148C150.195 13.7443 149.447 13.9091 148.545 13.9091H145.693V12.4205H148.386C148.958 12.4205 149.422 12.322 149.778 12.125C150.134 11.9242 150.396 11.6515 150.562 11.3068C150.729 10.9621 150.812 10.5701 150.812 10.1307C150.812 9.69129 150.729 9.30114 150.562 8.96023C150.396 8.61932 150.133 8.35227 149.773 8.15909C149.417 7.96591 148.947 7.86932 148.364 7.86932H146.159V18H144.403ZM156.963 18.1932C156.41 18.1932 155.91 18.0909 155.463 17.8864C155.016 17.678 154.662 17.3769 154.401 16.983C154.143 16.589 154.014 16.1061 154.014 15.5341C154.014 15.0417 154.109 14.6364 154.298 14.3182C154.488 14 154.743 13.7481 155.065 13.5625C155.387 13.3769 155.747 13.2367 156.145 13.142C156.543 13.0473 156.948 12.9754 157.361 12.9261C157.884 12.8655 158.308 12.8163 158.634 12.7784C158.959 12.7367 159.196 12.6705 159.344 12.5795C159.491 12.4886 159.565 12.3409 159.565 12.1364V12.0966C159.565 11.6004 159.425 11.2159 159.145 10.9432C158.868 10.6705 158.455 10.5341 157.906 10.5341C157.334 10.5341 156.884 10.661 156.554 10.9148C156.228 11.1648 156.003 11.4432 155.878 11.75L154.281 11.3864C154.471 10.8561 154.747 10.428 155.111 10.1023C155.478 9.77273 155.901 9.53409 156.378 9.38636C156.855 9.23485 157.357 9.15909 157.884 9.15909C158.232 9.15909 158.601 9.20076 158.991 9.28409C159.385 9.36364 159.753 9.51136 160.094 9.72727C160.438 9.94318 160.721 10.2519 160.94 10.6534C161.16 11.0511 161.27 11.5682 161.27 12.2045V18H159.611V16.8068H159.543C159.433 17.0265 159.268 17.2424 159.048 17.4545C158.829 17.6667 158.546 17.8428 158.202 17.983C157.857 18.1231 157.444 18.1932 156.963 18.1932ZM157.332 16.8295C157.802 16.8295 158.204 16.7367 158.537 16.5511C158.874 16.3655 159.13 16.1231 159.304 15.8239C159.482 15.5208 159.571 15.197 159.571 14.8523V13.7273C159.51 13.7879 159.393 13.8447 159.219 13.8977C159.048 13.947 158.853 13.9905 158.634 14.0284C158.414 14.0625 158.2 14.0947 157.991 14.125C157.783 14.1515 157.609 14.1742 157.469 14.1932C157.139 14.2348 156.838 14.3049 156.565 14.4034C156.296 14.5019 156.08 14.6439 155.918 14.8295C155.759 15.0114 155.679 15.2538 155.679 15.5568C155.679 15.9773 155.834 16.2955 156.145 16.5114C156.455 16.7235 156.851 16.8295 157.332 16.8295ZM163.533 18V9.27273H165.175V10.6591H165.266C165.425 10.1894 165.705 9.82008 166.107 9.55114C166.512 9.27841 166.97 9.14205 167.482 9.14205C167.588 9.14205 167.713 9.14583 167.857 9.15341C168.004 9.16098 168.12 9.17045 168.203 9.18182V10.8068C168.135 10.7879 168.014 10.767 167.839 10.7443C167.665 10.7178 167.491 10.7045 167.317 10.7045C166.915 10.7045 166.557 10.7898 166.243 10.9602C165.932 11.1269 165.686 11.3598 165.504 11.6591C165.322 11.9545 165.232 12.2917 165.232 12.6705V18H163.533ZM174.263 9.27273V10.6364H169.496V9.27273H174.263ZM170.774 7.18182H172.473V15.4375C172.473 15.767 172.522 16.0152 172.621 16.1818C172.719 16.3447 172.846 16.4564 173.001 16.517C173.161 16.5739 173.333 16.6023 173.518 16.6023C173.655 16.6023 173.774 16.5928 173.876 16.5739C173.979 16.5549 174.058 16.5398 174.115 16.5284L174.422 17.9318C174.323 17.9697 174.183 18.0076 174.001 18.0455C173.82 18.0871 173.592 18.1098 173.32 18.1136C172.873 18.1212 172.456 18.0417 172.07 17.875C171.683 17.7083 171.371 17.4508 171.132 17.1023C170.893 16.7538 170.774 16.3163 170.774 15.7898V7.18182ZM180.987 12.3466V13.8182H175.828V12.3466H180.987ZM187.325 9.27273V10.6364H182.558V9.27273H187.325ZM183.837 7.18182H185.536V15.4375C185.536 15.767 185.585 16.0152 185.683 16.1818C185.782 16.3447 185.909 16.4564 186.064 16.517C186.223 16.5739 186.395 16.6023 186.581 16.6023C186.717 16.6023 186.837 16.5928 186.939 16.5739C187.041 16.5549 187.121 16.5398 187.178 16.5284L187.484 17.9318C187.386 17.9697 187.246 18.0076 187.064 18.0455C186.882 18.0871 186.655 18.1098 186.382 18.1136C185.935 18.1212 185.518 18.0417 185.132 17.875C184.746 17.7083 184.433 17.4508 184.195 17.1023C183.956 16.7538 183.837 16.3163 183.837 15.7898V7.18182ZM189.205 18V9.27273H190.903V18H189.205ZM190.062 7.92614C189.767 7.92614 189.513 7.82765 189.301 7.63068C189.093 7.42992 188.989 7.19129 188.989 6.91477C188.989 6.63447 189.093 6.39583 189.301 6.19886C189.513 5.99811 189.767 5.89773 190.062 5.89773C190.358 5.89773 190.61 5.99811 190.818 6.19886C191.03 6.39583 191.136 6.63447 191.136 6.91477C191.136 7.19129 191.03 7.42992 190.818 7.63068C190.61 7.82765 190.358 7.92614 190.062 7.92614ZM193.189 18V9.27273H194.82V10.6932H194.928C195.109 10.2121 195.407 9.83712 195.82 9.56818C196.232 9.29545 196.727 9.15909 197.303 9.15909C197.886 9.15909 198.375 9.29545 198.768 9.56818C199.166 9.84091 199.46 10.2159 199.649 10.6932H199.74C199.948 10.2273 200.28 9.85606 200.734 9.57955C201.189 9.29924 201.731 9.15909 202.359 9.15909C203.151 9.15909 203.797 9.4072 204.297 9.90341C204.801 10.3996 205.053 11.1477 205.053 12.1477V18H203.354V12.3068C203.354 11.7159 203.193 11.2879 202.871 11.0227C202.549 10.7576 202.164 10.625 201.717 10.625C201.164 10.625 200.734 10.7955 200.428 11.1364C200.121 11.4735 199.967 11.9072 199.967 12.4375V18H198.274V12.1989C198.274 11.7254 198.126 11.3447 197.831 11.0568C197.536 10.7689 197.151 10.625 196.678 10.625C196.356 10.625 196.058 10.7102 195.786 10.8807C195.517 11.0473 195.299 11.2803 195.132 11.5795C194.969 11.8788 194.888 12.2254 194.888 12.6193V18H193.189ZM211.091 18.1761C210.231 18.1761 209.491 17.9924 208.869 17.625C208.252 17.2538 207.775 16.733 207.438 16.0625C207.104 15.3883 206.938 14.5985 206.938 13.6932C206.938 12.7992 207.104 12.0114 207.438 11.3295C207.775 10.6477 208.244 10.1155 208.847 9.73295C209.453 9.35038 210.161 9.15909 210.972 9.15909C211.464 9.15909 211.941 9.24053 212.403 9.40341C212.866 9.56629 213.28 9.82197 213.648 10.1705C214.015 10.5189 214.305 10.9716 214.517 11.5284C214.729 12.0814 214.835 12.7538 214.835 13.5455V14.1477H207.898V12.875H213.17C213.17 12.428 213.08 12.0322 212.898 11.6875C212.716 11.339 212.46 11.0644 212.131 10.8636C211.805 10.6629 211.422 10.5625 210.983 10.5625C210.506 10.5625 210.089 10.6799 209.733 10.9148C209.381 11.1458 209.108 11.4489 208.915 11.8239C208.725 12.1951 208.631 12.5985 208.631 13.0341V14.0284C208.631 14.6117 208.733 15.108 208.938 15.517C209.146 15.9261 209.436 16.2386 209.807 16.4545C210.178 16.6667 210.612 16.7727 211.108 16.7727C211.43 16.7727 211.723 16.7273 211.989 16.6364C212.254 16.5417 212.483 16.4015 212.676 16.2159C212.869 16.0303 213.017 15.8011 213.119 15.5284L214.727 15.8182C214.598 16.2917 214.367 16.7064 214.034 17.0625C213.705 17.4148 213.29 17.6894 212.79 17.8864C212.294 18.0795 211.727 18.1761 211.091 18.1761Z" fill="#475467"/>
<defs>
<clipPath id="clip0_5125_230394">
<rect width="20" height="20" fill="white" transform="translate(0 2)"/>
</clipPath>
</defs>
</svg>
