<svg width="87" height="24" viewBox="0 0 87 24" fill="none" xmlns="http://www.w3.org/2000/svg">
<path d="M9.99992 12.4166C11.3806 12.4166 12.4999 11.2973 12.4999 9.91663C12.4999 8.53591 11.3806 7.41663 9.99992 7.41663C8.61921 7.41663 7.49992 8.53591 7.49992 9.91663C7.49992 11.2973 8.61921 12.4166 9.99992 12.4166Z" stroke="#98A2B3" stroke-width="1.66667" stroke-linecap="round" stroke-linejoin="round"/>
<path d="M9.99992 20.3333C11.6666 17 16.6666 14.8485 16.6666 10.3333C16.6666 6.65139 13.6818 3.66663 9.99992 3.66663C6.31802 3.66663 3.33325 6.65139 3.33325 10.3333C3.33325 14.8485 8.33325 17 9.99992 20.3333Z" stroke="#98A2B3" stroke-width="1.66667" stroke-linecap="round" stroke-linejoin="round"/>
<path d="M29.2784 18V6.36364H33.4261C34.3277 6.36364 35.0758 6.51894 35.6705 6.82955C36.2689 7.14015 36.7159 7.57008 37.0114 8.11932C37.3068 8.66477 37.4545 9.29545 37.4545 10.0114C37.4545 10.7235 37.3049 11.3504 37.0057 11.892C36.7102 12.4299 36.2633 12.8485 35.6648 13.1477C35.0701 13.447 34.322 13.5966 33.4205 13.5966H30.2784V12.0852H33.2614C33.8295 12.0852 34.2917 12.0038 34.6477 11.8409C35.0076 11.678 35.2708 11.4413 35.4375 11.1307C35.6042 10.8201 35.6875 10.447 35.6875 10.0114C35.6875 9.57197 35.6023 9.19129 35.4318 8.86932C35.2652 8.54735 35.0019 8.30114 34.642 8.13068C34.286 7.95644 33.8182 7.86932 33.2386 7.86932H31.0341V18H29.2784ZM35.0227 12.75L37.8977 18H35.8977L33.0795 12.75H35.0227ZM43.1065 18.1761C42.2467 18.1761 41.5062 17.9924 40.8849 17.625C40.2675 17.2538 39.7902 16.733 39.4531 16.0625C39.1198 15.3883 38.9531 14.5985 38.9531 13.6932C38.9531 12.7992 39.1198 12.0114 39.4531 11.3295C39.7902 10.6477 40.2599 10.1155 40.8622 9.73295C41.4683 9.35038 42.1766 9.15909 42.9872 9.15909C43.4796 9.15909 43.9569 9.24053 44.419 9.40341C44.8812 9.56629 45.2959 9.82197 45.6634 10.1705C46.0308 10.5189 46.3205 10.9716 46.5327 11.5284C46.7448 12.0814 46.8509 12.7538 46.8509 13.5455V14.1477H39.9134V12.875H45.1861C45.1861 12.428 45.0952 12.0322 44.9134 11.6875C44.7315 11.339 44.4759 11.0644 44.1463 10.8636C43.8205 10.6629 43.438 10.5625 42.9986 10.5625C42.5213 10.5625 42.1046 10.6799 41.7486 10.9148C41.3963 11.1458 41.1236 11.4489 40.9304 11.8239C40.741 12.1951 40.6463 12.5985 40.6463 13.0341V14.0284C40.6463 14.6117 40.7486 15.108 40.9531 15.517C41.1615 15.9261 41.4512 16.2386 41.8224 16.4545C42.1937 16.6667 42.6274 16.7727 43.1236 16.7727C43.4455 16.7727 43.7391 16.7273 44.0043 16.6364C44.2694 16.5417 44.4986 16.4015 44.6918 16.2159C44.8849 16.0303 45.0327 15.8011 45.1349 15.5284L46.7429 15.8182C46.6141 16.2917 46.383 16.7064 46.0497 17.0625C45.7202 17.4148 45.3054 17.6894 44.8054 17.8864C44.3092 18.0795 43.7429 18.1761 43.1065 18.1761ZM48.7358 18V9.27273H50.3665V10.6932H50.4744C50.6563 10.2121 50.9536 9.83712 51.3665 9.56818C51.7794 9.29545 52.2737 9.15909 52.8494 9.15909C53.4328 9.15909 53.9214 9.29545 54.3153 9.56818C54.7131 9.84091 55.0066 10.2159 55.196 10.6932H55.2869C55.4953 10.2273 55.8267 9.85606 56.2812 9.57955C56.7358 9.29924 57.2775 9.15909 57.9062 9.15909C58.6979 9.15909 59.3438 9.4072 59.8438 9.90341C60.3475 10.3996 60.5994 11.1477 60.5994 12.1477V18H58.9006V12.3068C58.9006 11.7159 58.7396 11.2879 58.4176 11.0227C58.0956 10.7576 57.7112 10.625 57.2642 10.625C56.7112 10.625 56.2812 10.7955 55.9744 11.1364C55.6676 11.4735 55.5142 11.9072 55.5142 12.4375V18H53.821V12.1989C53.821 11.7254 53.6733 11.3447 53.3778 11.0568C53.0824 10.7689 52.6979 10.625 52.2244 10.625C51.9025 10.625 51.6051 10.7102 51.3324 10.8807C51.0634 11.0473 50.8456 11.2803 50.679 11.5795C50.5161 11.8788 50.4347 12.2254 50.4347 12.6193V18H48.7358ZM66.5526 18.1761C65.7344 18.1761 65.0204 17.9886 64.4105 17.6136C63.8007 17.2386 63.3272 16.714 62.9901 16.0398C62.6529 15.3655 62.4844 14.5777 62.4844 13.6761C62.4844 12.7708 62.6529 11.9792 62.9901 11.3011C63.3272 10.6231 63.8007 10.0966 64.4105 9.72159C65.0204 9.34659 65.7344 9.15909 66.5526 9.15909C67.3707 9.15909 68.0848 9.34659 68.6946 9.72159C69.3045 10.0966 69.7779 10.6231 70.1151 11.3011C70.4522 11.9792 70.6207 12.7708 70.6207 13.6761C70.6207 14.5777 70.4522 15.3655 70.1151 16.0398C69.7779 16.714 69.3045 17.2386 68.6946 17.6136C68.0848 17.9886 67.3707 18.1761 66.5526 18.1761ZM66.5582 16.75C67.0885 16.75 67.5279 16.6098 67.8764 16.3295C68.2249 16.0492 68.4825 15.6761 68.6491 15.2102C68.8196 14.7443 68.9048 14.2311 68.9048 13.6705C68.9048 13.1136 68.8196 12.6023 68.6491 12.1364C68.4825 11.6667 68.2249 11.2898 67.8764 11.0057C67.5279 10.7216 67.0885 10.5795 66.5582 10.5795C66.0241 10.5795 65.581 10.7216 65.2287 11.0057C64.8802 11.2898 64.6207 11.6667 64.4503 12.1364C64.2836 12.6023 64.2003 13.1136 64.2003 13.6705C64.2003 14.2311 64.2836 14.7443 64.4503 15.2102C64.6207 15.6761 64.8802 16.0492 65.2287 16.3295C65.581 16.6098 66.0241 16.75 66.5582 16.75ZM76.5909 9.27273V10.6364H71.8239V9.27273H76.5909ZM73.1023 7.18182H74.8011V15.4375C74.8011 15.767 74.8504 16.0152 74.9489 16.1818C75.0473 16.3447 75.1742 16.4564 75.3295 16.517C75.4886 16.5739 75.661 16.6023 75.8466 16.6023C75.983 16.6023 76.1023 16.5928 76.2045 16.5739C76.3068 16.5549 76.3864 16.5398 76.4432 16.5284L76.75 17.9318C76.6515 17.9697 76.5114 18.0076 76.3295 18.0455C76.1477 18.0871 75.9205 18.1098 75.6477 18.1136C75.2008 18.1212 74.7841 18.0417 74.3977 17.875C74.0114 17.7083 73.6989 17.4508 73.4602 17.1023C73.2216 16.7538 73.1023 16.3163 73.1023 15.7898V7.18182ZM82.1378 18.1761C81.2779 18.1761 80.5374 17.9924 79.9162 17.625C79.2988 17.2538 78.8215 16.733 78.4844 16.0625C78.151 15.3883 77.9844 14.5985 77.9844 13.6932C77.9844 12.7992 78.151 12.0114 78.4844 11.3295C78.8215 10.6477 79.2912 10.1155 79.8935 9.73295C80.4995 9.35038 81.2079 9.15909 82.0185 9.15909C82.5109 9.15909 82.9882 9.24053 83.4503 9.40341C83.9124 9.56629 84.3272 9.82197 84.6946 10.1705C85.062 10.5189 85.3518 10.9716 85.5639 11.5284C85.776 12.0814 85.8821 12.7538 85.8821 13.5455V14.1477H78.9446V12.875H84.2173C84.2173 12.428 84.1264 12.0322 83.9446 11.6875C83.7628 11.339 83.5071 11.0644 83.1776 10.8636C82.8518 10.6629 82.4692 10.5625 82.0298 10.5625C81.5526 10.5625 81.1359 10.6799 80.7798 10.9148C80.4276 11.1458 80.1548 11.4489 79.9616 11.8239C79.7723 12.1951 79.6776 12.5985 79.6776 13.0341V14.0284C79.6776 14.6117 79.7798 15.108 79.9844 15.517C80.1927 15.9261 80.4825 16.2386 80.8537 16.4545C81.2249 16.6667 81.6586 16.7727 82.1548 16.7727C82.4768 16.7727 82.7704 16.7273 83.0355 16.6364C83.3007 16.5417 83.5298 16.4015 83.723 16.2159C83.9162 16.0303 84.0639 15.8011 84.1662 15.5284L85.7741 15.8182C85.6454 16.2917 85.4143 16.7064 85.081 17.0625C84.7514 17.4148 84.3366 17.6894 83.8366 17.8864C83.3404 18.0795 82.7741 18.1761 82.1378 18.1761Z" fill="#475467"/>
</svg>
